Coordinates
version=1
nRows=12
nColumns=46
inDegrees=yes

Units are S.I. units (second, meters, Newtons, ...)
Angles are in degrees.

endheader
time	pelvis_tilt	pelvis_list	pelvis_rotation	pelvis_tx	pelvis_ty	pelvis_tz	bb_angle	bb_tx	bb_ty	bb_tz	hip_flexion_r	hip_adduction_r	hip_rotation_r	knee_angle_r	knee_angle_r_beta	ankle_angle_r	subtalar_angle_r	mtp_angle_r	crank_angle_r	hip_flexion_l	hip_adduction_l	hip_rotation_l	knee_angle_l	knee_angle_l_beta	ankle_angle_l	subtalar_angle_l	mtp_angle_l	crank_angle_l	lumbar_extension	lumbar_bending	lumbar_rotation	arm_flex_r	arm_add_r	arm_rot_r	elbow_flex_r	pro_sup_r	wrist_flex_r	wrist_dev_r	arm_flex_l	arm_add_l	arm_rot_l	elbow_flex_l	pro_sup_l	wrist_flex_l	wrist_dev_l
      5.00000000	    -28.36370868	     -7.10148094	     -3.46362812	      0.42578007	      1.20982371	     -0.25690983	      0.00000000	      0.50000000	      0.00000000	      0.25000000	     74.73836760	      1.59181110	     -5.67232266	     83.44843431	      1.45644993	      5.97960078	     -4.51758050	      0.00000000	      0.00000000	     39.22214111	    -14.84643981	     -3.03153192	     52.63482910	      0.91865107	    -18.20486202	     -5.40234668	      0.00000000	      0.00000000	    -62.11459491	      7.36691211	      9.81874606	     58.02013282	    -17.97855393	     27.99969762	     85.14355847	     59.00587601	      0.00000000	      0.00000000	     41.29548734	    -13.27724598	      7.35697134	     89.58107621	     53.64308749	      0.00000000	      0.00000000
      5.00500000	    -28.58313658	     -6.54359749	     -3.28542087	      0.42611573	      1.20973966	     -0.25659784	      0.00000000	      0.50000000	      0.00000000	      0.25000000	     73.69230255	      1.33190703	     -5.37840076	     81.12098402	      1.41582826	      6.62194175	     -4.45345702	      0.00000000	      0.00000000	     40.62740028	    -14.43812994	     -2.76971224	     55.19795480	      0.96338605	    -18.59620598	     -5.27922923	      0.00000000	      0.00000000	    -61.86677282	      6.96702446	      9.25339758	     56.43133172	    -16.85582604	     25.63911306	     85.94034662	     58.83935706	      0.00000000	      0.00000000	     40.97412289	    -13.38141531	      7.27838422	     90.11573342	     53.74063609	      0.00000000	      0.00000000
      5.01000000	    -28.56802249	     -5.91622049	     -3.11882323	      0.42678954	      1.20997147	     -0.25631137	      0.00000000	      0.50000000	      0.00000000	      0.25000000	     72.34651935	      1.06405906	     -5.02805129	     78.73787519	      1.37423517	      6.99555347	     -4.68366282	      0.00000000	      0.00000000	     41.72226057	    -13.98668256	     -2.69885195	     57.66885841	      1.00651146	    -19.10536080	     -5.48027934	      0.00000000	      0.00000000	    -61.69226528	      6.47002685	      8.93949523	     55.31184887	    -16.67516504	     24.28586989	     86.38953203	     58.74400058	      0.00000000	      0.00000000	     41.31389729	    -13.16058507	      7.64181840	     89.54479347	     53.70440582	      0.00000000	      0.00000000
      5.01500000	    -28.64633387	     -5.35669277	     -2.86119584	      0.42743482	      1.20997055	     -0.25608703	      0.00000000	      0.50000000	      0.00000000	      0.25000000	     71.03181156	      0.68662874	     -4.84344315	     76.27231021	      1.33120294	      7.17403251	     -4.87481842	      0.00000000	      0.00000000	     42.98378452	    -13.52138828	     -2.49674228	     60.11221702	      1.04915611	    -19.66146947	     -5.65677034	      0.00000000	      0.00000000	    -61.40701591	      6.13919316	      8.48870888	     54.59449862	    -16.66712683	     23.75926069	     86.54821640	     58.71069824	      0.00000000	      0.00000000	     41.41294236	    -13.14039540	      7.91141381	     89.16736390	     53.67980144	      0.00000000	      0.00000000
      5.02000000	    -28.61643156	     -4.66829597	     -2.57008139	      0.42809905	      1.20988048	     -0.25587335	      0.00000000	      0.50000000	      0.00000000	      0.25000000	     69.61447042	      0.28564370	     -4.44511055	     73.82867518	      1.28855346	      7.15479830	     -5.10207830	      0.00000000	      0.00000000	     44.12730875	    -12.91696939	     -2.37360248	     62.54327169	      1.09158602	    -20.16248259	     -5.87417232	      0.00000000	      0.00000000	    -61.15513153	      5.53727344	      8.46755701	     52.81025702	    -16.88596551	     21.60204799	     87.73377623	     58.65022200	      0.00000000	      0.00000000	     42.29509742	    -12.42777362	      8.92158874	     87.79196102	     53.59905332	      0.00000000	      0.00000000
      5.02500000	    -28.46630445	     -3.79159518	     -2.30757759	      0.42914472	      1.20986768	     -0.25572046	      0.00000000	      0.50000000	      0.00000000	      0.25000000	     68.07552085	     -0.28655436	     -3.96860610	     71.44519844	      1.24695395	      7.18673957	     -5.13126512	      0.00000000	      0.00000000	     45.02857187	    -12.16630594	     -2.48328003	     64.82006314	      1.13132352	    -20.56392439	     -5.85867535	      0.00000000	      0.00000000	    -61.08020321	      4.98279622	      7.58312900	     52.51223071	    -16.98489350	     21.52280994	     87.73508889	     58.64515366	      0.00000000	      0.00000000	     42.20303383	    -12.30726154	      9.06448473	     87.64071190	     53.59354088	      0.00000000	      0.00000000
      5.03000000	    -28.54590454	     -3.36184939	     -1.83182824	      0.42969471	      1.20905488	     -0.25567786	      0.00000000	      0.50000000	      0.00000000	      0.25000000	     66.72305521	     -0.83339119	     -4.06825617	     69.02432931	      1.20470181	      6.71283382	     -5.57111011	      0.00000000	      0.00000000	     46.50089252	    -11.62549209	     -2.04139567	     67.34350126	      1.17536583	    -21.18941982	     -6.36356752	      0.00000000	      0.00000000	    -60.62840331	      4.75312763	      7.58156764	     50.65573556	    -16.79287231	     19.39507961	     88.61263688	     58.55900957	      0.00000000	      0.00000000	     43.08479976	    -11.91019861	     10.22002612	     86.00677885	     53.49936514	      0.00000000	      0.00000000
      5.03500000	    -28.36606536	     -2.52705165	     -1.52302812	      0.43071551	      1.20870449	     -0.25540952	      0.00000000	      0.50000000	      0.00000000	      0.25000000	     65.16021066	     -1.49045920	     -3.70886135	     66.74218301	      1.16487084	      6.55762794	     -5.46317642	      0.00000000	      0.00000000	     47.46147777	    -10.89948701	     -2.12333189	     69.62609616	      1.21520462	    -21.59976446	     -6.34607511	      0.00000000	      0.00000000	    -60.52410757	      4.21233724	      6.67161130	     50.35495792	    -16.84680473	     19.31068787	     88.61254722	     58.55336188	      0.00000000	      0.00000000	     43.10759897	    -11.79425368	     10.36935531	     85.88878374	     53.49840557	      0.00000000	      0.00000000
      5.04000000	    -28.36096938	     -2.07108081	     -0.96246134	      0.43130136	      1.20785388	     -0.25547887	      0.00000000	      0.50000000	      0.00000000	      0.25000000	     63.73439912	     -2.19381902	     -3.79954098	     64.40629428	      1.12410189	      5.78407636	     -5.24170175	      0.00000000	      0.00000000	     48.86358928	    -10.24880776	     -1.70026618	     72.00286807	      1.25668712	    -22.28237068	     -6.80526756	      0.00000000	      0.00000000	    -60.12374323	      4.09046958	      6.26022185	     49.13865842	    -16.12806594	     17.70432788	     88.61678010	     58.36142884	      0.00000000	      0.00000000	     43.79814951	    -11.83693145	     11.35910235	     84.79981134	     53.43546802	      0.00000000	      0.00000000
      5.04500000	    -28.16200404	     -1.38616134	     -0.49862016	      0.43210344	      1.20721986	     -0.25549818	      0.00000000	      0.50000000	      0.00000000	      0.25000000	     62.17334461	     -2.99209380	     -3.72487589	     62.26046403	      1.08665009	      5.26029977	     -4.83833168	      0.00000000	      0.00000000	     49.95156019	     -9.48176321	     -1.55265273	     74.27532085	      1.29634890	    -22.75575510	     -6.90192901	      0.00000000	      0.00000000	    -59.98859906	      3.75312827	      5.45980880	     48.60653033	    -16.11241334	     17.51074254	     88.62950161	     58.32774487	      0.00000000	      0.00000000	     43.99154335	    -11.74675396	     11.58725469	     84.61550687	     53.41982163	      0.00000000	      0.00000000
      5.05000000	    -28.00647408	     -0.77984643	      0.03188666	      0.43280005	      1.20629031	     -0.25563011	      0.00000000	      0.50000000	      0.00000000	      0.25000000	     60.64491680	     -3.82136799	     -3.77387515	     60.17241770	      1.05020681	      4.68190250	     -4.39872226	      0.00000000	      0.00000000	     51.17258218	     -8.73035564	     -1.35733102	     76.54860210	      1.33602514	    -23.34575233	     -7.06585620	      0.00000000	      0.00000000	    -59.78397321	      3.51132119	      4.75600345	     48.01410514	    -15.97060953	     17.10524191	     88.62125671	     58.26967102	      0.00000000	      0.00000000	     44.16183053	    -11.67511702	     12.00248115	     84.24659950	     53.39964719	      0.00000000	      0.00000000
      5.05500000	    -27.84468368	     -0.14633776	      0.50163843	      0.43352548	      1.20524819	     -0.25572976	      0.00000000	      0.50000000	      0.00000000	      0.25000000	     59.11054409	     -4.65136871	     -3.82969292	     58.13935339	      1.01472314	      4.19671261	     -3.92239388	      0.00000000	      0.00000000	     52.36790566	     -7.98383343	     -1.22838552	     78.78420020	      1.37504369	    -23.79666015	     -7.20977259	      0.00000000	      0.00000000	    -59.52780320	      3.23329769	      4.11709641	     47.37052888	    -15.83610534	     16.69074175	     88.54818383	     58.18633353	      0.00000000	      0.00000000	     44.34453136	    -11.57629783	     12.46600438	     83.85123291	     53.37100190	      0.00000000	      0.00000000
